<svg xmlns="http://www.w3.org/2000/svg" width="32" height="32" viewBox="0 0 32 32">
  <path id="Subtração_1" data-name="Subtração 1" d="M16,32A16,16,0,0,1,4.686,4.686,16,16,0,1,1,27.314,27.314,15.9,15.9,0,0,1,16,32ZM9.286,20.106c.156,2.732,2.035,4.685,5.155,5.359V28.5h4.2V25.493c3.112-.6,4.9-2.412,4.9-4.973,0-3.9-3.324-5.3-6.575-6.149-3.059-.8-4.2-1.608-4.2-3,0-1.577,1.483-2.6,3.777-2.6,2.259,0,3.4.961,3.5,2.938h3.092a5.543,5.543,0,0,0-4.491-5.33V3.318h-4.2V6.34c-3.02.662-4.9,2.6-4.9,5.051,0,2.862,2.089,4.7,6.574,5.778,3.7.885,4.2,2.2,4.2,3.379a2.15,2.15,0,0,1-.727,1.608,4.462,4.462,0,0,1-3.051.889c-3.229,0-4.049-1.6-4.169-2.938Z" fill="#1a6093"/>
</svg>
