<svg xmlns="http://www.w3.org/2000/svg" width="42.193" height="29.667" viewBox="0 0 42.193 29.667">
  <path id="Icon_awesome-youtube" data-name="Icon awesome-youtube" d="M42.361,9.142a5.3,5.3,0,0,0-3.73-3.754C35.34,4.5,22.146,4.5,22.146,4.5s-13.194,0-16.484.887a5.3,5.3,0,0,0-3.73,3.754C1.05,12.454,1.05,19.363,1.05,19.363s0,6.91.882,10.221a5.223,5.223,0,0,0,3.73,3.694c3.29.887,16.484.887,16.484.887s13.194,0,16.484-.887a5.223,5.223,0,0,0,3.73-3.694c.882-3.312.882-10.221.882-10.221s0-6.91-.882-10.221ZM17.831,25.637V13.09l11.028,6.274L17.831,25.637Z" transform="translate(-1.05 -4.5)" fill="#fff"/>
</svg>
