<svg xmlns="http://www.w3.org/2000/svg" width="56" height="56" viewBox="0 0 56 56">
  <g id="Grupo_21" data-name="Grupo 21" transform="translate(-1384 -491)">
    <g id="Grupo_12" data-name="Grupo 12">
      <path id="Retângulo_744" data-name="Retângulo 744" d="M3,0H56a0,0,0,0,1,0,0V56a0,0,0,0,1,0,0H3a3,3,0,0,1-3-3V3A3,3,0,0,1,3,0Z" transform="translate(1384 491)" fill="#fff" opacity="0.3"/>
    </g>
    <path id="Icon_ionic-ios-arrow-forward" data-name="Icon ionic-ios-arrow-forward" d="M20.679,18,11.742,9.07a1.681,1.681,0,0,1,0-2.384,1.7,1.7,0,0,1,2.391,0L24.258,16.8a1.685,1.685,0,0,1,.049,2.327L14.14,29.32a1.688,1.688,0,0,1-2.391-2.384Z" transform="translate(1394.704 500.996)"/>
  </g>
</svg>
