<svg xmlns="http://www.w3.org/2000/svg" width="16.601" height="16.601" viewBox="0 0 16.601 16.601">
  <path id="Icon_awesome-phone-alt" data-name="Icon awesome-phone-alt" d="M16.127,11.731,12.5,10.175a.778.778,0,0,0-.908.224L9.98,12.363A12.018,12.018,0,0,1,4.234,6.618L6.2,5.01A.776.776,0,0,0,6.423,4.1L4.867.471A.783.783,0,0,0,3.975.02L.6.8a.778.778,0,0,0-.6.758A15.043,15.043,0,0,0,15.044,16.6.778.778,0,0,0,15.8,16l.778-3.372a.788.788,0,0,0-.454-.895Z" transform="translate(0 0)" fill="#fff"/>
</svg>
