<svg xmlns="http://www.w3.org/2000/svg" width="16.601" height="16.601" viewBox="0 0 16.601 16.601">
  <path id="Icon_awesome-whatsapp" data-name="Icon awesome-whatsapp" d="M14.114,4.662A8.229,8.229,0,0,0,1.167,14.589L0,18.851l4.361-1.145a8.2,8.2,0,0,0,3.932,1h0a8.305,8.305,0,0,0,8.3-8.226,8.259,8.259,0,0,0-2.486-5.818ZM8.3,17.32a6.825,6.825,0,0,1-3.483-.952l-.248-.148L1.979,16.9l.689-2.523L2.5,14.115A6.851,6.851,0,1,1,15.211,10.48,6.914,6.914,0,0,1,8.3,17.32Zm3.75-5.121c-.2-.1-1.215-.6-1.4-.667s-.326-.1-.463.1-.53.667-.652.808-.241.156-.445.052a5.6,5.6,0,0,1-2.8-2.446c-.211-.363.211-.337.6-1.123a.381.381,0,0,0-.019-.359c-.052-.1-.463-1.115-.634-1.527S5.9,6.7,5.773,6.689s-.256-.007-.393-.007a.761.761,0,0,0-.548.256,2.31,2.31,0,0,0-.719,1.716,4.027,4.027,0,0,0,.837,2.127,9.185,9.185,0,0,0,3.513,3.105,4.022,4.022,0,0,0,2.468.515,2.105,2.105,0,0,0,1.386-.978,1.719,1.719,0,0,0,.119-.978C12.387,12.351,12.25,12.3,12.047,12.2Z" transform="translate(0 -2.25)" fill="#fff"/>
</svg>
