<svg xmlns="http://www.w3.org/2000/svg" width="33.825" height="33.818" viewBox="0 0 33.825 33.818">
  <path id="Icon_awesome-instagram" data-name="Icon awesome-instagram" d="M16.911,10.476a8.67,8.67,0,1,0,8.67,8.67A8.657,8.657,0,0,0,16.911,10.476Zm0,14.307a5.637,5.637,0,1,1,5.637-5.637,5.647,5.647,0,0,1-5.637,5.637ZM27.959,10.121A2.022,2.022,0,1,1,25.936,8.1,2.018,2.018,0,0,1,27.959,10.121ZM33.7,12.174A10.008,10.008,0,0,0,30.97,5.088a10.074,10.074,0,0,0-7.086-2.732c-2.792-.158-11.161-.158-13.953,0A10.059,10.059,0,0,0,2.845,5.081C.861,7.058.249,9.457.114,12.166c-.158,2.792-.158,11.161,0,13.953A10.008,10.008,0,0,0,2.845,33.2a10.087,10.087,0,0,0,7.086,2.732c2.792.158,11.161.158,13.953,0A10.008,10.008,0,0,0,30.97,33.2,10.074,10.074,0,0,0,33.7,26.119c.158-2.792.158-11.153,0-13.945ZM30.094,29.115A5.707,5.707,0,0,1,26.88,32.33c-2.226.883-7.508.679-9.968.679s-7.75.2-9.968-.679a5.707,5.707,0,0,1-3.215-3.215c-.883-2.226-.679-7.508-.679-9.968s-.2-7.75.679-9.968A5.707,5.707,0,0,1,6.943,5.964c2.226-.883,7.508-.679,9.968-.679s7.75-.2,9.968.679a5.707,5.707,0,0,1,3.215,3.215c.883,2.226.679,7.508.679,9.968S30.977,26.9,30.094,29.115Z" transform="translate(0.005 -2.238)" fill="#fff"/>
</svg>
