<svg xmlns="http://www.w3.org/2000/svg" width="32.103" height="32.103" viewBox="0 0 32.103 32.103">
  <path id="Icon_awesome-phone-alt" data-name="Icon awesome-phone-alt" d="M31.188,22.686l-7.023-3.01a1.5,1.5,0,0,0-1.756.433l-3.11,3.8A23.241,23.241,0,0,1,8.189,12.8l3.8-3.11a1.5,1.5,0,0,0,.433-1.756L9.412.91A1.515,1.515,0,0,0,7.687.038l-6.521,1.5A1.5,1.5,0,0,0,0,3.01,29.091,29.091,0,0,0,29.094,32.1a1.5,1.5,0,0,0,1.467-1.166l1.5-6.521a1.523,1.523,0,0,0-.878-1.731Z" transform="translate(0 0)" fill="#1a6093"/>
</svg>
