<svg xmlns="http://www.w3.org/2000/svg" width="56" height="56.001" viewBox="0 0 56 56.001">
  <g id="Grupo_22" data-name="Grupo 22" transform="translate(1528 547.001) rotate(180)">
    <path id="Subtração_4" data-name="Subtração 4" d="M56,56H3a3,3,0,0,1-3-3V3A3,3,0,0,1,3,0H56V56ZM23.641,16.192a1.688,1.688,0,0,0-1.2.491,1.66,1.66,0,0,0-.5,1.184,1.678,1.678,0,0,0,.5,1.2L31.383,28l-8.93,8.937a1.659,1.659,0,0,0-.5,1.184,1.693,1.693,0,0,0,2.887,1.2L35.011,29.128a1.68,1.68,0,0,0-.05-2.327L24.836,16.682A1.688,1.688,0,0,0,23.641,16.192Z" transform="translate(1472 491)" fill="#fff" opacity="0.3"/>
    <path id="Icon_ionic-ios-arrow-forward" data-name="Icon ionic-ios-arrow-forward" d="M20.679,18,11.742,9.07a1.681,1.681,0,0,1,0-2.384,1.7,1.7,0,0,1,2.391,0L24.258,16.8a1.685,1.685,0,0,1,.049,2.327L14.14,29.32a1.688,1.688,0,0,1-2.391-2.384Z" transform="translate(1481.753 500.803)"/>
  </g>
</svg>
